<?xml version="1.0" encoding="UTF-8"?>
<svg version="1.1" xmlns="http://www.w3.org/2000/svg" width="368" height="368">
<path d="M0 0 C3.93525174 2.0466637 6.23534462 4.21971035 7.97265625 8.2734375 C8.33232668 10.26886936 8.66891273 12.26873029 8.97265625 14.2734375 C9.51567383 14.18255859 10.05869141 14.09167969 10.61816406 13.99804688 C20.78340155 12.320331 30.63990264 10.70639614 40.97265625 11.2734375 C41.96265625 13.7484375 41.96265625 13.7484375 42.97265625 16.2734375 C44.27299805 16.09167969 44.27299805 16.09167969 45.59960938 15.90625 C48.8493652 15.45465379 52.09971993 15.00795874 55.35058594 14.56445312 C56.75124228 14.37237048 58.15164103 14.17839877 59.55175781 13.98242188 C64.01966498 13.35780718 68.49011216 12.78558337 72.97265625 12.2734375 C73.8234375 12.17417969 74.67421875 12.07492188 75.55078125 11.97265625 C79.03580562 11.74337833 80.71859489 12.0890658 83.5670166 14.15615845 C86.90105865 18.47648108 87.19793251 22.25747128 87.80664062 27.58740234 C87.94557739 28.64929401 88.08451416 29.71118568 88.22766113 30.80525589 C88.69380114 34.4043844 89.12961041 38.00657627 89.56640625 41.609375 C89.89878861 44.21753336 90.23300976 46.82538596 90.56994629 49.43295288 C91.21563969 54.4472286 91.85316559 59.46244023 92.48206854 64.47884953 C93.83493972 75.26568817 95.24841272 86.04408367 96.67578125 96.82128906 C97.15295579 100.42692455 97.62998114 104.03257976 98.10693359 107.63824463 C98.22681326 108.5443381 98.34669292 109.45043157 98.47020531 110.38398242 C100.07268913 122.50460021 101.65268192 134.62815713 103.23416138 146.75152969 C103.48129461 148.64587765 103.72843615 150.54022452 103.97558594 152.43457031 C104.09824514 153.37478775 104.22090435 154.31500518 104.3472805 155.28371406 C105.36014449 163.04415992 106.37858723 170.80386745 107.39794302 178.56346285 C108.39577717 186.16165531 109.3891988 193.76041667 110.37929392 201.35962141 C110.96433841 205.84915798 111.55121765 210.33843525 112.14286804 214.82710648 C112.69302295 219.00173466 113.23768884 223.17704278 113.77817154 227.35293388 C113.97611638 228.87494669 114.17601163 230.39670739 114.3780632 231.91818047 C117.10583677 252.48162084 117.10583677 252.48162084 114.10766602 257.22241211 C109.76971449 260.06044114 105.90203298 260.50859611 100.8125 261.08984375 C99.75919998 261.22779861 98.70589996 261.36575348 97.62068176 261.50788879 C94.05274188 261.97037551 90.48174825 262.40263185 86.91015625 262.8359375 C84.36788935 263.16078042 81.825904 263.48783308 79.28417969 263.81689453 C73.52737308 264.55982858 67.7688486 265.28811207 62.00927734 266.00927734 C45.37526685 268.09461132 28.75210444 270.26533975 12.12804699 272.42831516 C5.87542943 273.24121857 -0.37808515 274.04672177 -6.63245869 274.84599972 C-10.5834022 275.35171532 -14.53378531 275.8617156 -18.4840641 276.37259483 C-20.33778281 276.61134935 -22.19174175 276.848247 -24.04594994 277.08316994 C-26.60584273 277.40775821 -29.16479299 277.7390044 -31.72363281 278.07177734 C-32.46616334 278.16424523 -33.20869387 278.25671312 -33.97372532 278.35198307 C-41.86581949 279.3932782 -47.4970888 281.19998244 -53.71484375 286.1484375 C-65.84375743 295.38973436 -79.13708062 302.83826995 -92.52734375 310.0859375 C-93.32237305 310.52494385 -94.11740234 310.9639502 -94.93652344 311.41625977 C-95.67805664 311.80869873 -96.41958984 312.2011377 -97.18359375 312.60546875 C-97.83134766 312.95327393 -98.47910156 313.3010791 -99.14648438 313.65942383 C-101.50189951 314.42835803 -102.72475575 314.11406963 -105.02734375 313.2734375 C-131.84247475 294.49710381 -148.2700643 256.88658547 -155.43359375 226.1328125 C-156.10161834 221.79065267 -156.16350919 217.65342566 -156.02734375 213.2734375 C-155.43945068 212.96229004 -154.85155762 212.65114258 -154.24584961 212.33056641 C-148.4098784 209.22905075 -142.61669016 206.05857932 -136.84863281 202.83251953 C-134.45505783 201.50979802 -132.04224797 200.24387547 -129.61328125 198.98828125 C-119.30827142 193.31268268 -115.46460223 185.64360443 -110.49609375 175.21875 C-105.25185915 164.32843929 -94.27092611 154.1858899 -83.83912659 147.9694519 C-81.76986046 146.40305346 -81.76986046 146.40305346 -81.7674408 143.81375122 C-81.94237816 142.316772 -81.94237816 142.316772 -82.12084961 140.78955078 C-82.24918182 139.6221637 -82.37751404 138.45477661 -82.50973511 137.25201416 C-82.68061877 135.92560799 -82.85323656 134.59942439 -83.02734375 133.2734375 C-83.20518395 131.82832917 -83.38250183 130.38315649 -83.55935669 128.93792725 C-84.07057053 124.84792797 -84.61587882 120.76306047 -85.17022896 116.67870712 C-85.53971811 113.95315971 -85.9039577 111.22695457 -86.26683044 108.5005188 C-87.29798841 100.75862231 -88.33701891 93.0177978 -89.38256836 85.27783203 C-90.0252579 80.51741689 -90.66087814 75.75609969 -91.2922802 70.99417496 C-91.53237433 69.19427606 -91.7751408 67.39473134 -92.02075386 65.59557724 C-95.4001899 40.8319235 -95.4001899 40.8319235 -92.65234375 35.7109375 C-85.54236706 31.81737884 -76.08562569 31.65551215 -68.15234375 30.6484375 C-67.13398437 30.514375 -66.115625 30.3803125 -65.06640625 30.2421875 C-60.99865708 29.71766195 -57.1368792 29.2734375 -53.02734375 29.2734375 C-53.13046875 28.5103125 -53.23359375 27.7471875 -53.33984375 26.9609375 C-53.23671875 26.0740625 -53.13359375 25.1871875 -53.02734375 24.2734375 C-49.64222085 21.77935556 -46.78813343 20.82343997 -42.6484375 20.32421875 C-41.64490234 20.19853516 -40.64136719 20.07285156 -39.60742188 19.94335938 C-38.57037109 19.82541016 -37.53332031 19.70746094 -36.46484375 19.5859375 C-35.42392578 19.45638672 -34.38300781 19.32683594 -33.31054688 19.19335938 C-29.17144273 18.69027855 -25.20297002 18.2734375 -21.02734375 18.2734375 C-21.07375 17.70496094 -21.12015625 17.13648437 -21.16796875 16.55078125 C-21.45063916 10.50365355 -20.71942464 7.13143867 -17.02734375 2.2734375 C-11.95574006 -1.38283493 -5.89535413 -2.11278587 0 0 Z " fill="#FCFCFD" transform="translate(195.02734375,24.7265625)"/>
<path d="M0 0 C3.93525174 2.0466637 6.23534462 4.21971035 7.97265625 8.2734375 C8.33232668 10.26886936 8.66891273 12.26873029 8.97265625 14.2734375 C9.51567383 14.18255859 10.05869141 14.09167969 10.61816406 13.99804688 C20.78340155 12.320331 30.63990264 10.70639614 40.97265625 11.2734375 C41.96265625 13.7484375 41.96265625 13.7484375 42.97265625 16.2734375 C44.27299805 16.09167969 44.27299805 16.09167969 45.59960938 15.90625 C48.8493652 15.45465379 52.09971993 15.00795874 55.35058594 14.56445312 C56.75124228 14.37237048 58.15164103 14.17839877 59.55175781 13.98242188 C64.01966498 13.35780718 68.49011216 12.78558337 72.97265625 12.2734375 C73.8234375 12.17417969 74.67421875 12.07492188 75.55078125 11.97265625 C79.03580562 11.74337833 80.71859489 12.0890658 83.5670166 14.15615845 C86.90105865 18.47648108 87.19793251 22.25747128 87.80664062 27.58740234 C87.94557739 28.64929401 88.08451416 29.71118568 88.22766113 30.80525589 C88.69380114 34.4043844 89.12961041 38.00657627 89.56640625 41.609375 C89.89878861 44.21753336 90.23300976 46.82538596 90.56994629 49.43295288 C91.21563969 54.4472286 91.85316559 59.46244023 92.48206854 64.47884953 C93.83493972 75.26568817 95.24841272 86.04408367 96.67578125 96.82128906 C97.15295579 100.42692455 97.62998114 104.03257976 98.10693359 107.63824463 C98.22681326 108.5443381 98.34669292 109.45043157 98.47020531 110.38398242 C100.07268913 122.50460021 101.65268192 134.62815713 103.23416138 146.75152969 C103.48129461 148.64587765 103.72843615 150.54022452 103.97558594 152.43457031 C104.09824514 153.37478775 104.22090435 154.31500518 104.3472805 155.28371406 C105.36014449 163.04415992 106.37858723 170.80386745 107.39794302 178.56346285 C108.39577717 186.16165531 109.3891988 193.76041667 110.37929392 201.35962141 C110.96433841 205.84915798 111.55121765 210.33843525 112.14286804 214.82710648 C112.69302295 219.00173466 113.23768884 223.17704278 113.77817154 227.35293388 C113.97611638 228.87494669 114.17601163 230.39670739 114.3780632 231.91818047 C117.10583677 252.48162084 117.10583677 252.48162084 114.10766602 257.22241211 C109.76971449 260.06044114 105.90203298 260.50859611 100.8125 261.08984375 C99.75919998 261.22779861 98.70589996 261.36575348 97.62068176 261.50788879 C94.05274188 261.97037551 90.48174825 262.40263185 86.91015625 262.8359375 C84.36788935 263.16078042 81.825904 263.48783308 79.28417969 263.81689453 C73.52737308 264.55982858 67.7688486 265.28811207 62.00927734 266.00927734 C45.37526685 268.09461132 28.75210444 270.26533975 12.12804699 272.42831516 C5.87542943 273.24121857 -0.37808515 274.04672177 -6.63245869 274.84599972 C-10.5834022 275.35171532 -14.53378531 275.8617156 -18.4840641 276.37259483 C-20.33778281 276.61134935 -22.19174175 276.848247 -24.04594994 277.08316994 C-26.60584273 277.40775821 -29.16479299 277.7390044 -31.72363281 278.07177734 C-32.46616334 278.16424523 -33.20869387 278.25671312 -33.97372532 278.35198307 C-41.86581949 279.3932782 -47.4970888 281.19998244 -53.71484375 286.1484375 C-65.84375743 295.38973436 -79.13708062 302.83826995 -92.52734375 310.0859375 C-93.32237305 310.52494385 -94.11740234 310.9639502 -94.93652344 311.41625977 C-95.67805664 311.80869873 -96.41958984 312.2011377 -97.18359375 312.60546875 C-97.83134766 312.95327393 -98.47910156 313.3010791 -99.14648438 313.65942383 C-101.50189951 314.42835803 -102.72475575 314.11406963 -105.02734375 313.2734375 C-131.84247475 294.49710381 -148.2700643 256.88658547 -155.43359375 226.1328125 C-156.10161834 221.79065267 -156.16350919 217.65342566 -156.02734375 213.2734375 C-155.43945068 212.96229004 -154.85155762 212.65114258 -154.24584961 212.33056641 C-148.4098784 209.22905075 -142.61669016 206.05857932 -136.84863281 202.83251953 C-134.45505783 201.50979802 -132.04224797 200.24387547 -129.61328125 198.98828125 C-119.30827142 193.31268268 -115.46460223 185.64360443 -110.49609375 175.21875 C-105.25185915 164.32843929 -94.27092611 154.1858899 -83.83912659 147.9694519 C-81.76986046 146.40305346 -81.76986046 146.40305346 -81.7674408 143.81375122 C-81.94237816 142.316772 -81.94237816 142.316772 -82.12084961 140.78955078 C-82.24918182 139.6221637 -82.37751404 138.45477661 -82.50973511 137.25201416 C-82.68061877 135.92560799 -82.85323656 134.59942439 -83.02734375 133.2734375 C-83.20518395 131.82832917 -83.38250183 130.38315649 -83.55935669 128.93792725 C-84.07057053 124.84792797 -84.61587882 120.76306047 -85.17022896 116.67870712 C-85.53971811 113.95315971 -85.9039577 111.22695457 -86.26683044 108.5005188 C-87.29798841 100.75862231 -88.33701891 93.0177978 -89.38256836 85.27783203 C-90.0252579 80.51741689 -90.66087814 75.75609969 -91.2922802 70.99417496 C-91.53237433 69.19427606 -91.7751408 67.39473134 -92.02075386 65.59557724 C-95.4001899 40.8319235 -95.4001899 40.8319235 -92.65234375 35.7109375 C-85.54236706 31.81737884 -76.08562569 31.65551215 -68.15234375 30.6484375 C-67.13398437 30.514375 -66.115625 30.3803125 -65.06640625 30.2421875 C-60.99865708 29.71766195 -57.1368792 29.2734375 -53.02734375 29.2734375 C-53.13046875 28.5103125 -53.23359375 27.7471875 -53.33984375 26.9609375 C-53.23671875 26.0740625 -53.13359375 25.1871875 -53.02734375 24.2734375 C-49.64222085 21.77935556 -46.78813343 20.82343997 -42.6484375 20.32421875 C-41.64490234 20.19853516 -40.64136719 20.07285156 -39.60742188 19.94335938 C-38.57037109 19.82541016 -37.53332031 19.70746094 -36.46484375 19.5859375 C-35.42392578 19.45638672 -34.38300781 19.32683594 -33.31054688 19.19335938 C-29.17144273 18.69027855 -25.20297002 18.2734375 -21.02734375 18.2734375 C-21.07375 17.70496094 -21.12015625 17.13648437 -21.16796875 16.55078125 C-21.45063916 10.50365355 -20.71942464 7.13143867 -17.02734375 2.2734375 C-11.95574006 -1.38283493 -5.89535413 -2.11278587 0 0 Z M65.45703125 23.1484375 C63.58144531 23.41914062 63.58144531 23.41914062 61.66796875 23.6953125 C60.36601562 23.88609375 59.0640625 24.076875 57.72265625 24.2734375 C56.39196449 24.46640399 55.06123568 24.65911514 53.73046875 24.8515625 C50.47749106 25.32300854 47.22491546 25.79706451 43.97265625 26.2734375 C44.30265625 28.9134375 44.63265625 31.5534375 44.97265625 34.2734375 C44.27132065 34.3254129 43.56998505 34.37738831 42.84739685 34.43093872 C34.78356199 35.06175309 26.77956593 35.98635258 18.7578125 37.015625 C17.4128187 37.18654937 16.06780166 37.35729102 14.72276306 37.52786255 C11.91644742 37.88430674 9.11036174 38.24249301 6.30444336 38.60205078 C2.77536594 39.05420185 -0.75416715 39.50266843 -4.28386497 39.94994736 C-19.88402904 41.92795951 -35.47005292 43.97912332 -51.02734375 46.2734375 C-51.02734375 43.9634375 -51.02734375 41.6534375 -51.02734375 39.2734375 C-61.87832648 39.77935149 -72.35215903 41.34899944 -83.02734375 43.2734375 C-82.44130922 54.82186867 -81.11327564 66.18764975 -79.55859375 77.640625 C-79.31548485 79.45520941 -79.07269286 81.26983631 -78.8302002 83.08450317 C-78.32569178 86.85153077 -77.81772183 90.61806978 -77.30712891 94.38427734 C-76.65178018 99.22002971 -76.00483388 104.05686349 -75.36032867 108.89407158 C-74.86247224 112.62437973 -74.36052729 116.35412856 -73.85728455 120.08371353 C-73.61684587 121.86901714 -73.37763517 123.65448655 -73.1396637 125.4401207 C-72.8088289 127.91752893 -72.47256787 130.39413904 -72.13476562 132.87060547 C-71.98822792 133.98000488 -71.98822792 133.98000488 -71.83872986 135.11181641 C-71.61836572 138.4832817 -71.61836572 138.4832817 -70.02734375 141.2734375 C-71.01863281 141.63953125 -72.00992188 142.005625 -73.03125 142.3828125 C-77.62258346 144.35464995 -81.16989288 147.32295319 -84.96484375 150.5234375 C-86.02034424 151.39959717 -86.02034424 151.39959717 -87.09716797 152.29345703 C-89.08100075 153.94519446 -91.05496226 155.60806008 -93.02734375 157.2734375 C-93.88714844 157.98757812 -94.74695313 158.70171875 -95.6328125 159.4375 C-103.50424798 166.1061436 -108.13212276 173.0578479 -112.71484375 182.2734375 C-116.7346581 190.09448721 -119.65388974 195.43137351 -128.04296875 198.83203125 C-128.6978125 199.30769531 -129.35265625 199.78335938 -130.02734375 200.2734375 C-130.67353582 205.40496274 -129.61351285 210.23200962 -128.40234375 215.2109375 C-128.22413086 215.94820068 -128.04591797 216.68546387 -127.86230469 217.44506836 C-120.20039267 247.83667116 -102.56778877 279.43298999 -78.02734375 299.2734375 C-73.3882206 297.64929574 -69.46451805 295.20385696 -65.33984375 292.5859375 C-64.28506836 291.9209021 -64.28506836 291.9209021 -63.20898438 291.24243164 C-54.93068378 286.02709131 -54.93068378 286.02709131 -47.02734375 280.2734375 C-47.02734375 279.9434375 -47.02734375 279.6134375 -47.02734375 279.2734375 C-47.85878906 279.28503906 -48.69023437 279.29664063 -49.546875 279.30859375 C-51.17689453 279.32212891 -51.17689453 279.32212891 -52.83984375 279.3359375 C-53.91878906 279.34753906 -54.99773437 279.35914063 -56.109375 279.37109375 C-59.02734375 279.2734375 -59.02734375 279.2734375 -62.02734375 278.2734375 C-63.71866251 268.04724408 -65.2614093 257.81490105 -66.5625 247.53125 C-66.68837494 246.53865173 -66.81424988 245.54605347 -66.94393921 244.52337646 C-67.45999014 240.43625306 -67.97237223 236.34870741 -68.4777832 232.26025391 C-68.85430689 229.22481342 -69.23907495 226.19050744 -69.625 223.15625 C-69.79226341 221.77507492 -69.79226341 221.77507492 -69.96290588 220.36599731 C-70.5251485 215.98567479 -71.31927411 212.36920972 -73.02734375 208.2734375 C-72.40951762 206.25781469 -71.73624881 204.25885888 -71.02734375 202.2734375 C-70.86592223 199.58399084 -70.79163206 197.01802996 -70.83984375 194.3359375 C-70.84048828 193.65853516 -70.84113281 192.98113281 -70.84179688 192.28320312 C-70.87073795 188.92925373 -71.10437514 185.90098677 -71.78515625 182.609375 C-72.02734375 179.2734375 -72.02734375 179.2734375 -70.375 176.40234375 C-69.62089844 175.55542969 -68.86679688 174.70851562 -68.08984375 173.8359375 C-67.33832031 172.97097656 -66.58679688 172.10601562 -65.8125 171.21484375 C-65.22339844 170.57417969 -64.63429688 169.93351563 -64.02734375 169.2734375 C-64.68734375 170.2634375 -65.34734375 171.2534375 -66.02734375 172.2734375 C-66.13354097 175.56114486 -66.13354097 175.56114486 -65.79296875 179.33740234 C-65.74078186 180.04401693 -65.68859497 180.75063152 -65.63482666 181.47865868 C-64.97932309 189.77169032 -63.8891865 198.00824229 -62.77734375 206.25 C-62.55651636 207.91663765 -62.3361481 209.58333619 -62.11621094 211.25009155 C-61.5428299 215.58507559 -60.96276778 219.91913971 -60.38134766 224.25305176 C-59.90728085 227.79563856 -59.43811985 231.33886719 -58.96917725 234.88213539 C-58.40688159 239.12997628 -57.84242022 243.37752823 -57.27734375 247.625 C-57.11752014 248.82696455 -57.11752014 248.82696455 -56.95446777 250.05321121 C-56.65178991 252.32550672 -56.34764745 254.59760091 -56.04296875 256.86962891 C-55.87055664 258.1581778 -55.69814453 259.44672668 -55.52050781 260.77432251 C-55.07277546 263.95108886 -54.57127305 267.11188645 -54.02734375 270.2734375 C-44.71468592 269.60044348 -35.47477407 268.50661941 -26.21875 267.3046875 C-24.67414604 267.10609518 -23.12951326 266.90772693 -21.58485413 266.70956421 C-17.44400515 266.17762322 -13.30359786 265.6423166 -9.16327667 265.1062851 C-5.71366219 264.66011225 -2.26379072 264.21594497 1.18608475 263.77179527 C35.78737074 259.31684882 70.38128756 254.80468152 104.97265625 250.2734375 C104.40910296 240.0290295 103.40294639 229.92853281 102.03125 219.7578125 C101.82933572 218.232146 101.62789103 216.70641729 101.42686462 215.18063354 C100.99020651 211.87292791 100.55066298 208.56562371 100.10882568 205.25860596 C99.39475357 199.91310535 98.68714478 194.56676212 97.98095703 189.22021484 C97.85778484 188.28771093 97.73461266 187.35520702 97.60770798 186.39444542 C97.35172744 184.45631749 97.09577317 182.5181861 96.83984375 180.58005142 C96.43866754 177.54345274 96.03687236 174.50693639 95.63500977 171.47042847 C93.39707571 154.54917665 91.19113374 137.62382256 88.99384332 120.69725609 C88.71948071 118.58375385 88.44506191 116.47025892 88.1706295 114.35676575 C86.62292029 102.43690972 85.07612098 90.51693563 83.53054851 78.59680235 C82.57786572 71.24932337 81.62420039 63.90197302 80.66952705 56.55475235 C80.34812646 54.0795935 80.02712963 51.60438219 79.70655632 49.12911606 C79.26547594 45.72348169 78.82307694 42.31802105 78.38037109 38.91259766 C78.18723406 37.41742929 78.18723406 37.41742929 77.99019527 35.89205551 C77.396621 31.33640611 76.77116703 26.79888393 75.97265625 22.2734375 C72.32717303 22.2734375 69.05650231 22.62487807 65.45703125 23.1484375 Z " fill="#1D1266" transform="translate(195.02734375,24.7265625)"/>
<path d="M0 0 C1.60725635 3.21451269 1.05748185 6.43612536 1 10 C-2.10331824 10.48476521 -5.2077918 10.96172504 -8.3125 11.4375 C-9.17423828 11.57220703 -10.03597656 11.70691406 -10.92382812 11.84570312 C-15.55616786 12.55174747 -20.17194043 13.13731839 -24.84057617 13.54711914 C-25.81234299 13.63312881 -26.7841098 13.71913849 -27.7853241 13.80775452 C-28.51616714 13.87119553 -29.24701019 13.93463654 -30 14 C-29.89390915 14.80083511 -29.7878183 15.60167023 -29.67851257 16.42677307 C-28.66380474 24.0866909 -27.64932207 31.7466385 -26.63507366 39.40661716 C-26.1140116 43.34181316 -25.59287149 47.27699879 -25.0715332 51.2121582 C-24.86865075 52.74365213 -24.66576988 54.27514627 -24.46289062 55.80664062 C-24.36299898 56.56062826 -24.26310734 57.3146159 -24.16018867 58.09145164 C-23.66242836 61.84955417 -23.16535069 65.60774497 -22.66964722 69.36611938 C-22.47687125 70.82757616 -22.28409176 72.28903246 -22.09130859 73.75048828 C-21.95162816 74.80959632 -21.95162816 74.80959632 -21.8091259 75.89010048 C-21.2259183 80.30647848 -20.63417323 84.72163387 -20.03759766 89.13623047 C-19.89546341 90.19792953 -19.75332916 91.2596286 -19.60688782 92.35350037 C-19.35041021 94.26901272 -19.09105328 96.18414304 -18.82804871 98.09877014 C-18.25092025 102.43656063 -17.86182348 106.61099507 -18 111 C-15.69 111 -13.38 111 -11 111 C-11 111.33 -11 111.66 -11 112 C-11.57105469 112.02835937 -12.14210938 112.05671875 -12.73046875 112.0859375 C-21.00288107 113.05916248 -26.2558991 117.4890374 -32.39941406 122.6640625 C-33.9054382 123.92107349 -35.44786597 125.13409867 -36.9921875 126.34375 C-47.80260251 134.84834242 -54.35798766 143.64056098 -60.24609375 156.00390625 C-63.82375771 163.03250493 -67.98632605 167.28223141 -75 171 C-75.66 171 -76.32 171 -77 171 C-73.76073398 191.22026303 -67.7532555 209.00658307 -58 227 C-57.43539062 228.04542969 -56.87078125 229.09085938 -56.2890625 230.16796875 C-48.21705907 244.51188096 -38.1777215 258.92152718 -25 269 C-20.32023775 267.36435494 -16.35104834 264.88581042 -12.1875 262.25 C-11.47916016 261.80479004 -10.77082031 261.35958008 -10.04101562 260.90087891 C-5.17685917 257.81659203 -0.518569 254.57720046 4 251 C4.66 251.33 5.32 251.66 6 252 C-8.33482729 263.03347313 -23.60319109 272.20812943 -39.5 280.8125 C-40.2950293 281.25150635 -41.09005859 281.6905127 -41.90917969 282.14282227 C-42.65071289 282.53526123 -43.39224609 282.9277002 -44.15625 283.33203125 C-44.80400391 283.67983643 -45.45175781 284.0276416 -46.11914062 284.38598633 C-48.47455576 285.15492053 -49.697412 284.84063213 -52 284 C-78.815131 265.22366631 -95.24272055 227.61314797 -102.40625 196.859375 C-103.07427459 192.51721517 -103.13616544 188.37998816 -103 184 C-102.41210693 183.68885254 -101.82421387 183.37770508 -101.21850586 183.05712891 C-95.38253465 179.95561325 -89.58934641 176.78514182 -83.82128906 173.55908203 C-81.42771408 172.23636052 -79.01490422 170.97043797 -76.5859375 169.71484375 C-66.28092767 164.03924518 -62.43725848 156.37016693 -57.46875 145.9453125 C-52.2245154 135.05500179 -41.24358236 124.9124524 -30.81178284 118.6960144 C-28.74251671 117.12961596 -28.74251671 117.12961596 -28.74009705 114.54031372 C-28.91503441 113.0433345 -28.91503441 113.0433345 -29.09350586 111.51611328 C-29.28600418 109.76503265 -29.28600418 109.76503265 -29.48239136 107.97857666 C-29.65327502 106.65217049 -29.82589281 105.32598689 -30 104 C-30.1778402 102.55489167 -30.35515808 101.10971899 -30.53201294 99.66448975 C-31.04322678 95.57449047 -31.58853507 91.48962297 -32.14288521 87.40526962 C-32.51237436 84.67972221 -32.87661395 81.95351707 -33.23948669 79.2270813 C-34.27064466 71.48518481 -35.30967516 63.7443603 -36.35522461 56.00439453 C-36.99791415 51.24397939 -37.63353439 46.48266219 -38.26493645 41.72073746 C-38.50503058 39.92083856 -38.74779705 38.12129384 -38.99341011 36.32213974 C-42.37284615 11.558486 -42.37284615 11.558486 -39.625 6.4375 C-32.51502331 2.54394134 -23.05828194 2.38207465 -15.125 1.375 C-13.59746094 1.17390625 -13.59746094 1.17390625 -12.0390625 0.96875 C-7.97131333 0.44422445 -4.10953545 0 0 0 Z " fill="#1B1165" transform="translate(142,54)"/>
<path d="M0 0 C3.93525174 2.0466637 6.23534462 4.21971035 7.97265625 8.2734375 C8.33232668 10.26886936 8.66891273 12.26873029 8.97265625 14.2734375 C9.51567383 14.18255859 10.05869141 14.09167969 10.61816406 13.99804688 C34.50324603 10.05594702 34.50324603 10.05594702 40.97265625 11.2734375 C43.0088972 14.32779893 43.29219572 15.42827304 43.60546875 18.94140625 C43.68925781 19.83408203 43.77304688 20.72675781 43.859375 21.64648438 C43.93800781 22.57525391 44.01664062 23.50402344 44.09765625 24.4609375 C44.18402344 25.40130859 44.27039063 26.34167969 44.359375 27.31054688 C44.57139024 29.63093587 44.77551054 31.95174569 44.97265625 34.2734375 C24.80690834 37.27147514 4.61206796 40.01784929 -15.6100769 42.60812378 C-18.09373883 42.92630124 -20.57724001 43.24573609 -23.06057739 43.56643677 C-26.58674913 44.02105887 -30.1135564 44.47036412 -33.640625 44.91796875 C-34.70178528 45.05523376 -35.76294556 45.19249878 -36.85626221 45.33392334 C-41.61027163 45.93089794 -46.22396127 46.45126463 -51.02734375 46.2734375 C-51.36657951 43.91998944 -51.69884909 41.5658891 -52.02734375 39.2109375 C-52.12273437 38.55416016 -52.218125 37.89738281 -52.31640625 37.22070312 C-53.52180839 28.48153761 -53.52180839 28.48153761 -53.02734375 24.2734375 C-49.66300823 21.75065527 -46.78436324 20.82298531 -42.6484375 20.32421875 C-41.64490234 20.19853516 -40.64136719 20.07285156 -39.60742188 19.94335938 C-38.0518457 19.76643555 -38.0518457 19.76643555 -36.46484375 19.5859375 C-35.42392578 19.45638672 -34.38300781 19.32683594 -33.31054688 19.19335938 C-29.17144273 18.69027855 -25.20297002 18.2734375 -21.02734375 18.2734375 C-21.07375 17.70496094 -21.12015625 17.13648437 -21.16796875 16.55078125 C-21.45063916 10.50365355 -20.71942464 7.13143867 -17.02734375 2.2734375 C-11.95574006 -1.38283493 -5.89535413 -2.11278587 0 0 Z " fill="#EB535B" transform="translate(195.02734375,24.7265625)"/>
<path d="M0 0 C0.50704109 3.37398089 1.00436536 6.74932621 1.5 10.125 C1.64308594 11.07632813 1.78617188 12.02765625 1.93359375 13.0078125 C2.06894531 13.9359375 2.20429688 14.8640625 2.34375 15.8203125 C2.46943359 16.66867676 2.59511719 17.51704102 2.72460938 18.39111328 C3.02600403 21.24634672 3 24.12890322 3 27 C-5.58 27.99 -14.16 28.98 -23 30 C-23.495 27.03 -23.99 24.06 -24.5 21 C-24.65662109 20.08089844 -24.81324219 19.16179687 -24.97460938 18.21484375 C-25.80849785 13.07032546 -26.14474667 8.21088019 -26 3 C-22.22957855 2.49686083 -18.45859978 1.99802745 -14.6875 1.5 C-13.61564453 1.35691406 -12.54378906 1.21382812 -11.43945312 1.06640625 C-10.41142578 0.93105469 -9.38339844 0.79570312 -8.32421875 0.65625 C-7.37635498 0.53056641 -6.42849121 0.40488281 -5.4519043 0.27539062 C-3 0 -3 0 0 0 Z " fill="#E7E4ED" transform="translate(164,138)"/>
<path d="M0 0 C0.50440793 3.58272727 1.00275771 7.16627177 1.5 10.75 C1.64308594 11.76578125 1.78617188 12.7815625 1.93359375 13.828125 C2.06894531 14.8078125 2.20429688 15.7875 2.34375 16.796875 C2.46943359 17.69760742 2.59511719 18.59833984 2.72460938 19.52636719 C3 22 3 22 3 26 C-0.01982884 26.50682442 -3.04062817 27.00563335 -6.0625 27.5 C-6.91005859 27.64308594 -7.75761719 27.78617188 -8.63085938 27.93359375 C-13.49272389 28.72200421 -18.07528186 29.16037074 -23 29 C-24.73266274 21.73290965 -26.06474251 14.7399758 -26.0234375 7.25 C-26.02005371 6.45078125 -26.01666992 5.6515625 -26.01318359 4.828125 C-26.00883301 4.22484375 -26.00448242 3.6215625 -26 3 C-22.98017116 2.49317558 -19.95937183 1.99436665 -16.9375 1.5 C-16.08994141 1.35691406 -15.24238281 1.21382813 -14.36914062 1.06640625 C-9.50727611 0.27799579 -4.92471814 -0.16037074 0 0 Z " fill="#E7E4ED" transform="translate(158,90)"/>
<path d="M0 0 C0.53477621 3.39378931 1.05033758 6.79023051 1.5625 10.1875 C1.71396484 11.14720703 1.86542969 12.10691406 2.02148438 13.09570312 C2.16005859 14.02705078 2.29863281 14.95839844 2.44140625 15.91796875 C2.57232666 16.77156982 2.70324707 17.6251709 2.83813477 18.50463867 C3.01245125 21.19195204 2.63876982 23.39390077 2 26 C-1.41600147 26.50461625 -4.8328994 27.00288576 -8.25 27.5 C-9.21808594 27.64308594 -10.18617188 27.78617187 -11.18359375 27.93359375 C-12.11816406 28.06894531 -13.05273438 28.20429688 -14.015625 28.34375 C-14.87446289 28.46943359 -15.73330078 28.59511719 -16.61816406 28.72460938 C-19 29 -19 29 -23 29 C-24.91494784 19.92723742 -26.19368956 11.29709895 -26 2 C-23.54256436 1.65852011 -21.08440454 1.32674315 -18.625 1 C-17.60599609 0.85691406 -17.60599609 0.85691406 -16.56640625 0.7109375 C-11.02628366 -0.01393835 -5.58277203 -0.10416159 0 0 Z " fill="#E8E5EE" transform="translate(177,236)"/>
<path d="M0 0 C2.08385389 2.08385389 1.7361031 6.18778953 2.0625 9.0625 C2.15337891 9.80177734 2.24425781 10.54105469 2.33789062 11.30273438 C2.91181265 16.23501162 3.08453437 21.03501451 3 26 C-5.66170574 27.85479354 -14.17358581 28.54736337 -23 29 C-23.50440793 25.41727273 -24.00275771 21.83372823 -24.5 18.25 C-24.64308594 17.23421875 -24.78617188 16.2184375 -24.93359375 15.171875 C-25.06894531 14.1921875 -25.20429688 13.2125 -25.34375 12.203125 C-25.46943359 11.30239258 -25.59511719 10.40166016 -25.72460938 9.47363281 C-26 7 -26 7 -26 3 C-22.79279138 2.4926043 -19.58407837 1.995421 -16.375 1.5 C-15.47136719 1.35691406 -14.56773437 1.21382812 -13.63671875 1.06640625 C-9.06592021 0.3657729 -4.63956316 -0.30029535 0 0 Z " fill="#E8DCE4" transform="translate(170,187)"/>
<path d="M0 0 C0.66 0 1.32 0 2 0 C0.3341708 6.16356805 -2.87805286 11.48259656 -6 17 C-10.38718942 15.40733964 -12.90018015 13.54265126 -16 10 C-16 9.34 -16 8.68 -16 8 C-12.36185181 9.61695475 -10.30701392 11.35438887 -7 14 C-4.69 9.38 -2.38 4.76 0 0 Z " fill="#EE6970" transform="translate(153,96)"/>
<path d="M0 0 C0.66 0.33 1.32 0.66 2 1 C-0.64 6.28 -3.28 11.56 -6 17 C-10.07892691 14.96053655 -12.6566084 13.03944691 -16 10 C-16 9.34 -16 8.68 -16 8 C-13.08366224 9.30732382 -11.24135944 10.75864056 -9 13 C-8.34 13 -7.68 13 -7 13 C-3.535 6.565 -3.535 6.565 0 0 Z " fill="#EF6F76" transform="translate(172,242)"/>
<path d="M0 0 C0.66 0 1.32 0 2 0 C0.51095825 3.89608498 -1.24378713 7.59097018 -3.125 11.3125 C-3.66382813 12.38113281 -4.20265625 13.44976562 -4.7578125 14.55078125 C-5.37269531 15.76314453 -5.37269531 15.76314453 -6 17 C-9.21043882 15.61811547 -11.04936365 14.07578097 -13.25 11.375 C-13.77078125 10.74335938 -14.2915625 10.11171875 -14.828125 9.4609375 C-15.21484375 8.97882813 -15.6015625 8.49671875 -16 8 C-12.44774296 9.71435014 -9.25978366 11.77742023 -6 14 C-5.7525 13.175 -5.505 12.35 -5.25 11.5 C-3.81295189 7.47626529 -1.97645485 3.78020976 0 0 Z " fill="#EE6B71" transform="translate(159,145)"/>
<path d="M0 0 C0 0.99 0 1.98 0 3 C-0.33 3.33 -0.66 3.66 -1 4 C-1.36760731 6.32817964 -1.70241581 8.6618385 -2 11 C-2.66 10.34 -3.32 9.68 -4 9 C-6.0245738 10.93254772 -7.42105792 12.63158688 -9 15 C-8.4887988 10.49656089 -6.82478642 8.12474574 -3.9375 4.6875 C-3.20402344 3.80449219 -2.47054687 2.92148438 -1.71484375 2.01171875 C-1.14894531 1.34785156 -0.58304688 0.68398437 0 0 Z " fill="#4C4386" transform="translate(131,193)"/>
<path d="M0 0 C2.92090003 1.30936898 4.75619462 2.75619462 7 5 C7.99 5.33 8.98 5.66 10 6 C10 6.99 10 7.98 10 9 C6.04322598 7.32598022 3.15535787 4.86850715 0 2 C0 1.34 0 0.68 0 0 Z " fill="#EE676E" transform="translate(156,250)"/>
<path d="M0 0 C3.7952131 1.49097658 5.61042731 3.75700849 8 7 C5 7 5 7 2.3125 4.625 C0 2 0 2 0 0 Z " fill="#F07E84" transform="translate(137,104)"/>
</svg>
